<svg xmlns="http://www.w3.org/2000/svg" width="70" height="67" viewBox="0 0 70 67">
  <path fill="#D175FF" fill-rule="evenodd" d="M20.5494122,74.9723006 C22.5336938,71.4742882 25.5241746,69.3078667 29.4226176,68.3459816 C33.2031078,67.4131669 36.9758831,66.4488879 40.758945,65.5259913 C41.5837574,65.3247222 42.0641408,64.8944817 42.2540996,64.05777 C42.5860133,62.5958758 42.9818753,61.1485167 43.3365909,59.6915815 C43.6318158,58.4784949 43.1473178,57.8242421 41.9154996,57.5511522 C39.1621246,56.9410179 36.4149215,56.3007872 33.6756048,55.6309732 C32.9533153,55.4543284 32.2685719,55.125321 31.5490255,54.8597552 C32.1406754,53.7909941 32.761642,52.7949087 33.2620842,51.7418797 C34.9015939,48.2912348 35.7219488,44.6145255 36.0363753,40.8335052 C36.2623372,38.1152608 36.2647374,35.3787194 36.4824701,32.65962 C36.8797036,27.6952673 38.5017261,23.245972 42.3369066,19.8399585 C44.6695605,17.768272 47.3567585,16.3450241 50.4972519,16.0184107 C52.8859676,15.7701162 55.1563876,16.1191308 56.8576168,18.0887293 C57.4074346,18.7255399 58.1185803,18.9596414 58.9403067,18.8835456 C61.2000973,18.6740684 62.5882715,19.8479956 63.5197215,21.7466284 C64.5476939,23.8419132 64.9999606,26.0989657 65.1883765,28.3886796 C65.4174243,31.1746406 65.4986883,33.9735977 65.6099549,36.7682798 C65.7896272,41.2871729 66.3012132,45.7533974 67.9642105,49.9971486 C68.6143225,51.6560368 69.5003401,53.2227552 70.3460685,54.9702224 C68.5990641,55.4922908 66.7675382,56.1017411 64.9017237,56.5778101 C63.3157043,56.9825713 61.6923102,57.244375 60.0814315,57.5485872 C58.7606344,57.7982498 58.3126538,58.4591717 58.6347952,59.7775954 C58.9905395,61.2343596 59.3732004,62.6844547 59.7214012,64.1429289 C59.8991876,64.8871286 60.3344814,65.311213 61.0800872,65.49675 C65.2344946,66.5301137 69.405875,67.5043109 73.5306228,68.6455768 C78.5928211,70.0462523 82.4225155,74.8278041 82.9860487,79.9835078 C82.9901633,80.0206152 86.0000171,79.9835078 86.0000171,79.9835078 C85.8421181,79.1515842 85.7306801,78.3064934 85.5033467,77.4937219 C83.7155388,71.1004783 79.5349005,67.1385381 73.1213883,65.49504 C69.7688199,64.635756 66.4037361,63.8255496 63.0475674,62.9802878 C62.8030896,62.9187271 62.4379159,62.7997099 62.3804825,62.6251171 C62.1291471,61.8603971 61.9705623,61.0654098 61.7694596,60.2454563 C62.4548888,60.1110489 63.0571682,59.9983587 63.6572188,59.8742114 C67.036018,59.1749851 70.3359534,58.2320813 73.4119842,56.6333857 C74.4812744,56.0778009 74.583283,55.0521322 73.805446,54.1485588 C73.111616,53.3424564 72.4148716,52.5077967 71.8998567,51.5854131 C69.687213,47.6217628 68.9344066,43.2615594 68.65204,38.8085021 C68.4433938,35.5185988 68.4236778,32.2163834 68.205088,28.9271642 C68.0238727,26.1983178 67.5088578,23.5141028 66.4069935,20.9844735 C65.0534508,17.8778841 62.9030409,15.8658772 59.2698202,15.9378689 C59.0310001,15.942657 58.7273745,15.8149186 58.5567887,15.6456269 C56.0950382,13.2020114 53.000663,12.6645528 49.8049649,13.1763612 C42.7157957,14.311642 38.0331723,18.5820694 35.265396,25.0435427 C33.9416844,28.1338869 33.4669586,31.4166081 33.4559863,34.768072 C33.4450139,38.1643384 33.2283099,41.5445306 32.4816756,44.8665821 C31.6971523,48.3562155 30.5867158,51.7004973 27.9884967,54.3486309 C27.3606723,54.9886906 27.5220002,55.9789619 28.2809785,56.4798261 C28.658496,56.7289757 29.0759598,56.9230627 29.488966,57.1125327 C32.5497384,58.5159443 35.7641238,59.4193467 39.0692025,60.026574 C39.4367763,60.0941197 39.7992069,60.1890257 40.1825535,60.2753816 C40.0165967,60.9564817 39.8372673,61.5450698 39.7374874,62.1468251 C39.6503944,62.6724846 39.3819146,62.8862368 38.8710143,63.0091871 C35.5064449,63.8199065 32.1501047,64.6649973 28.79085,65.497776 C21.6192167,67.2758525 16.6358822,72.987312 16,79.9835078 L18.9606497,79.9835078 C19.1368931,78.173454 19.6736812,76.5161047 20.5494122,74.9723006" transform="translate(-16 -13)"/>
</svg>
