<svg xmlns="http://www.w3.org/2000/svg" width="69" height="67" viewBox="0 0 69 67">
  <path fill="#D175FF" fill-rule="evenodd" d="M520.060965,180.91058 C521.935516,176.91498 525.029369,174.428388 529.253514,173.361091 C532.975813,172.420487 536.693055,171.459167 540.420074,170.538765 C541.265982,170.329894 541.726359,169.866782 541.92022,169.01024 C542.29631,167.348346 542.71269,165.695012 543.146433,164.047328 C543.358837,163.240264 543.204085,162.601324 542.607162,162.005357 C540.118831,159.520648 538.586486,156.508797 537.907467,153.045133 C537.81138,152.555143 537.764853,152.055222 537.692534,151.560266 C537.550089,150.586961 537.094094,150.151928 536.150581,150.0855 C534.829124,149.992535 534.455225,149.630949 534.296596,148.328929 C534.098521,146.702646 533.8964,145.076705 533.680793,143.452818 C533.497889,142.076153 533.909043,141.513913 535.267081,141.330552 C536.373437,141.181261 536.838703,140.637169 536.74211,139.478106 C536.562578,137.323824 536.277855,135.176562 536.162381,133.019369 C536.099672,131.849007 536.186656,130.643718 536.397543,129.490305 C536.819823,127.182281 538.304292,125.750487 540.421254,124.931781 C542.35666,124.18327 544.3804,123.917387 546.429426,123.888967 C547.501393,123.874072 548.426025,123.625482 549.332114,123.019242 C551.06776,121.857782 553.034184,121.289893 555.092313,121.08496 C557.378692,120.857256 559.664228,120.777132 561.917398,121.39741 C564.568405,122.127089 566.433853,123.748065 567.420015,126.364773 C567.961477,127.801532 567.816166,129.187956 566.618274,130.162459 C565.151168,131.356106 564.70613,132.824537 564.758894,134.64805 C564.804072,136.213726 564.619483,137.785908 564.546659,139.355523 C564.488163,140.620733 564.85279,141.095658 566.056582,141.359828 C566.971775,141.560652 567.434007,142.063141 567.343313,142.9731 C567.149115,144.919709 566.905019,146.862209 566.634457,148.799574 C566.537695,149.492443 566.07698,149.891181 565.367955,150.025064 C563.948387,150.293172 563.754357,150.561794 563.565048,152.035704 C563.083093,155.789561 561.54468,159.035965 558.946606,161.760875 C558.712287,162.006556 558.466168,162.240594 558.234209,162.488328 C557.832664,162.916685 557.695107,163.416606 557.839913,163.997849 C558.273655,165.739697 558.703015,167.482742 559.130521,169.226302 C559.306176,169.942626 559.75745,170.329723 560.460407,170.507434 C564.508898,171.531073 568.595318,172.429732 572.588011,173.644094 C578.005834,175.29195 581.116207,179.333775 582.053988,184.970895 C582.075228,184.985448 585,185 585,185 C584.845248,184.170166 584.735338,183.32732 584.512313,182.516661 C582.751382,176.116477 578.633269,172.149982 572.315762,170.503839 C569.013383,169.643359 565.701227,168.820544 562.388059,168.003721 C561.915375,167.88713 561.675156,167.667645 561.577889,167.181934 C561.408134,166.335835 561.219836,165.489051 560.962591,164.667264 C560.808682,164.17539 560.940676,163.869103 561.262148,163.519843 C563.920909,160.633143 565.58019,157.23625 566.297139,153.354502 C566.343497,153.103857 566.588941,152.799111 566.820057,152.690395 C568.401457,151.94565 569.301815,150.721358 569.518939,148.970608 C569.726117,147.29964 569.932116,145.628501 570.152949,143.959245 C570.446606,141.739391 569.852886,139.959536 567.789699,138.851835 C567.622473,138.762123 567.498065,138.420226 567.502954,138.199028 C567.531274,136.92423 567.636971,135.650973 567.650794,134.376517 C567.659897,133.552333 567.920008,132.934794 568.533114,132.36057 C569.779893,131.192775 570.580286,129.733931 570.555674,127.974107 C570.512856,124.917058 569.039007,122.548426 566.798143,120.652323 C564.833741,118.990257 562.462401,118.308687 559.95502,118.101871 C555.564154,117.739942 551.355011,118.284034 547.506281,120.681256 C547.085182,120.943544 546.476964,120.951419 545.950842,120.977442 C543.968066,121.074858 542.015971,121.348103 540.124899,121.968039 C537.67298,122.772021 535.607265,124.104858 534.406676,126.519886 C533.30976,128.726214 533.149445,131.103406 533.297285,133.513469 C533.401464,135.211316 533.577625,136.904712 533.720745,138.589377 C531.345695,139.776175 530.517151,141.296311 530.832217,143.870732 C531.044958,145.609839 531.242696,147.351344 531.488984,149.085487 C531.748758,150.91328 532.738797,152.179688 534.48658,152.756994 C534.883068,152.887967 534.998036,153.104028 535.063948,153.463218 C535.759151,157.24755 537.3891,160.56175 539.926824,163.42705 C540.082756,163.60322 540.160806,163.956246 540.11293,164.193366 C539.911146,165.195262 539.626255,166.179524 539.416211,167.179879 C539.314898,167.662166 539.082264,167.886445 538.607727,168.003379 C535.29439,168.819688 531.983582,169.64781 528.679686,170.502469 C522.523337,172.095025 518.439614,175.93089 516.585629,182.119635 C516.308492,183.04483 516.183915,184.017108 516,184.970895 L518.964724,184.970895 C519.084918,183.52472 519.464379,182.182125 520.060965,180.91058" transform="translate(-516 -118)"/>
</svg>
